<?xml version="1.0" encoding="UTF-8"?>
<svg id="Layer_2" xmlns="http://www.w3.org/2000/svg" version="1.1" xmlns:xlink="http://www.w3.org/1999/xlink" viewBox="0 0 2000 2000">
  <!-- Generator: Adobe Illustrator 29.8.1, SVG Export Plug-In . SVG Version: 2.1.1 Build 2)  -->
  <defs>
    <style>
      .st0 {
        fill: #4e73ff;
      }

      .st1 {
        fill: #1c304e;
      }

      .st2 {
        fill: #3a53db;
      }

      .st3 {
        fill: #fff;
      }

      .st4 {
        fill: none;
      }

      .st5 {
        fill: #ffa800;
      }

      .st6 {
        fill: #fff1c7;
      }

      .st7 {
        clip-path: url(#clippath);
      }
    </style>
    <clipPath id="clippath">
      <path class="st4" d="M296.9,0h1406.3c164,0,296.9,132.9,296.9,296.9v1406.3c0,164-132.9,296.9-296.9,296.9H0V296.9C0,132.9,132.9,0,296.9,0Z"/>
    </clipPath>
  </defs>
  <g id="Layer_1-2">
    <g>
      <rect class="st6" width="2000" height="2000"/>
      <g class="st7">
        <g>
          <g>
            <path class="st3" d="M923.4,2004.8c60.5-268,132.2-590.3,132.2-590.3-34,100.9,19.1,187.7,19.1,187.7,0,0,5.2-97.9,108.9-244.8,97.3-137.8,104.6-171.3,166.2-416.4,62.2-247.6-139.7-338.5-139.7-338.5-67.9-44.1-445.1-90.2-553.2,276.4-108.1,366.6-243.9,470.1-664.4,692l4.8,434h926Z"/>
            <path class="st5" d="M1358.5,896.6s209.8,121.9,408.1,133c46-2.3-2.6,163.4-454.7,193.1-228.1,6.6-345.6-93.2-238.5-140.8,107.1-47.6,233.9-92.4,285.1-185.3h0Z"/>
            <ellipse class="st1" cx="1046.4" cy="926.3" rx="38.7" ry="82.3" transform="translate(-189.9 274.8) rotate(-13.7)"/>
            <g>
              <path class="st2" d="M588.8,879.5s16.8,66,43.5,79.2,167.7-156.4,327.1-217.3,397.6-303.3,397.6-303.3c0,0-86.9-32.6-217.4,101.2-106.8,109.5-519.2,118.6-550.8,340.1h0Z"/>
              <path class="st1" d="M1300.3,675.3s147.6-199.5,65.4-234.4c-51.5-21.9-131.6,50.5-170.7,116.7-30,50.7-46.8,66.9-46.8,66.9,0,0,98.9-16.8,152.2,50.9h0Z"/>
              <g>
                <path class="st0" d="M1091.2,497c-65.8-19.4-106.7-77.3-91.4-129.4,3.6-12.3,10.1-23.1,18.7-32.3-96.8-4.4-128.1,74.9-177.5,170.4-79.1-14.5-181.5-14.3-265.6,10-104.9,30.3-171.6,136.5-143.2,241.8,32.2,119.7,156.7,122,156.7,122,0,0,97.6-184.6,286.8-213.3,182.9-27.8,323.4-176.1,332.6-186-28.9,22.1-72.9,29.8-117.1,16.8h0Z"/>
                <path class="st3" d="M1208.7,479.6s-25.7-110.9-152.9-139.2c-13.6-3-25.8-4.5-37.4-5-8.6,9.2-15.1,20-18.7,32.3-15.3,52.1,25.6,110,91.4,129.4,44.1,13,88.2,5.3,117.1-16.8.3-.3.5-.5.5-.5h0Z"/>
              </g>
              <path class="st2" d="M714.7,627.2c12.8-7.9,25.2-16.2,37.2-24.8,11.9-8.7,23.5-17.9,34.3-27.8l8.1-7.5,7.6-7.9c2.7-2.5,5-5.3,7.4-8.1l3.6-4.2c1.3-1.3,2.4-2.7,3.5-4.2,9.3-11.4,16.9-23.9,24.5-37-3.6,14.6-9.5,29-18,41.7-8.4,12.8-18.4,24.5-29.8,34.8-11.4,10.1-23.7,19.3-36.8,26.8-13.1,7.6-27,14.1-41.5,18.1h0Z"/>
            </g>
          </g>
          <path class="st1" d="M87,1625.8c-.8-.2-40.9-10-87-21.3v-18c1.5.6,3.2,1.2,4.6,1.9,1-1.3,2.1-2.6,3.5-4.3,11.9,3,81.7,19,90.2,20.8,77.6,15.9,155.8,25.4,233.6,18.3,6.7-.5,13.5-1.4,20.3-2.3,3.9,3.8,12.4,6.7,19.2,9.5.8.3,5.9-3,8.5-4.4-2.5-2.8-4.7-5.5-7-8.2,10.7-1.8,21.4-4,32.1-6.6,1.4-.3,2.7-.7,4-1,10.5-2.6,21-5.4,31.4-8.8,19.5-6.1,38.7-13.7,58-22.7,2.5-1.1,5.1-2.3,7.6-3.6,1.4,1.4,2.3,4.3,1.9,6-.8,3.1-3,6.3-6,8.9-6.7,5.6-3.9,9,1,11.7-8.5,3.9-17.1,7.3-25.6,10.7-4,1.6-8.1,3.1-12.1,4.6-3.6,1.3-7.3,2.5-10.9,3.7-9.9,3.3-19.8,6.3-29.7,9-4-3.2-8.5-6.2-12.8-9.2-2.1,1.5-4.2,3-8.6,6.2,3.5,2.2,9.6,6.2,9.6,6.2-9.3,2.2-18.5,4.2-27.8,5.9-5-1.5-13.7-1.6-20.5-2-3.6-.2-7.5,1-11.7,1.6,1.4,1.5,2.5,3,4.2,4.4-3,.9-6.6,1.6-10.3,1.9-22.7,2.7-45.2,3.9-67.8,3.9-57.1,0-114-7.4-170.5-18.5-.5,0-1-.2-1.5-.3,1.4-.8,2.4-1.6,2.4-2.3.2-3.9-4-8-8.2-15-8.8,5.7-16.4,8.9-15.7,10.4.5,1,1.2,1.9,1.9,2.9h0ZM163,1490.2c12,1.8,23.9,3.4,36.8,4.8,11.2,1.2,22.5,2.1,33.7,2.9,2.9.2,5.8.4,8.7.5,11.7.6,23.4,1.1,35,1.1,7.9,0,15.6,0,23.5-.5,7.8-.3,15.5-.7,23.3-1.3,5.1-.4,10.2-.9,15.4-1.5,2.3-.2,4.5-.4,6.8-.7,6.6-.8,13.1-1.7,19.7-2.7.6,0,1.2-.2,1.8-.3,7.1-1.1,14.3-2.4,21.4-3.8,12,4,13.2,12,1.6,19.8-2.6,1.7-3.4,3-3.4,4.1-12.1,2.3-24.1,4.1-36.2,5.5-2.6.3-5.1.6-7.7.9-11.9,1.3-23.7,2.3-35.6,2.9-8,.3-29.1.6-29.1.6-10.5,0-21-.3-31.5-.8-2.8-.1-5.6-.3-8.4-.5-8.4-.5-16.7-1.1-25-1.8-2.3-.2-4.5-.4-6.8-.6-22.1-2.2-44.1-5.1-66.1-8.8-.4-.5-.9-1-1.3-1.5-6.3-8.4-12.3-16.8-18.4-25.2,11.7,2.2,23.4,4.1,35.1,5.9,2.3.3,4.5.7,6.8,1h0ZM291,1503c2.2,4,3.4,8.4,7,11.9,2,2,7.7,3,12.1,3.9,1.4.3,3.9-1.3,6-2.1-6.8-5.5-12.3-10.1-18.3-14.4-.8-.5-4.4.4-6.8.6ZM489,1457c2.3,2.8,4.7,5.5,7.2,8.2.5.5,4.3.5,5.6,0,1.4-.6,2.5-2.3,2-3.2-1.7-3.1-3.5-6.1-5.5-9.1-3.1,1.4-6.2,2.9-9.3,4.2h0ZM506.2,1827.5c-71.4,34.9-143.5,48.9-215.7,50.2-11.7.3-23.5.2-35.2-.3-13-.3-26.2-1.1-39.2-2.2-16.7-1.6-33.4-3.5-50.2-5.9-55.6-8.1-111-20.9-166-34.7v23.4c25.7,6.4,51.4,12.6,77.3,18.2,3.2.7,6.3,1.3,9.5,2,14.2,3,28.4,5.8,42.6,8.3,0,0,11.4-6.4,20.4-11.4,5.5,7.1,9.8,10.1,9.9,13.2,0,1,.2,2.1.3,3.3,10.4,1.5,20.7,2.9,31.1,4.1,17,1.9,34.2,3.5,51.3,4.3,12.1.6,24.1,1,36.2,1h4c11.9-.2,24-.5,35.8-1.3,65.9-4.2,132-19.4,197.7-51.6,5.6-2.7,8-9.5,5.1-15.3-2.7-5.6-9.5-7.9-15.1-5.1h0ZM61.2,1367.9c-6.7-1.5-49.4-11.8-61.2-14.7v-23.7c28.3,7,58.5,14.4,62.6,15.4,18.9,4.2,37.9,8.2,56.9,11.7.4,0,.7.1,1.1.2,19,3.5,38.1,6.6,57.1,9.2,2.6,1.3,5.3,2.6,8.7,3.5,16.7,4.8,13.7,10,11.7,16.7-.5,1.8-4.8,3.7-8.3,4.4-.2,0-2.8-.3-2.8-.3-1.8-.9-4.2-2.8-5.6-4.2-7.2-6.7-6.8-6.7-15-.7-.9.7-2.1,1.2-3.3,1.7-11.1-1.6-22.3-3.5-33.4-5.4-1.5-.3-36.7-7-36.7-7-1.9-3.6-6.1-4.3-10.4-2.2-7.1-1.5-14.3-3.1-21.4-4.7h0ZM152.9,1380.7c4.9-3.6,9.8-7.1,16.9-12.3-6.9-1.5-12.5-3.3-13.4-2.7-4,2.8-7.6,6.1-9.4,9.5-.7,1.3,3.8,3.7,5.9,5.5h0ZM456.8,1367.9c9.9-3.4,19.9-7.1,30-11.3,3.9-4.7-1.1-7.4-7-11.3-.7-.5-1.4-.9-2.1-1.4-1.3-.2-2.5-.3-3.8-.5-7.7,1.6-23.8,3.6-23.6,5.2,1,11.2-17.5,17.7-23.4,26.9-.3.4-.3,1-.2,1.6,9.9-2.7,19.7-5.7,30.2-9.2h0ZM501.1,1348.3c-1.1-.4-2-.9-3.3-1.3-7.1-2.3-12.1-8.1-15.7-13.1-4.1,1.7-8.2,3.3-12.2,4.9,2.6,1.7,5.3,3.4,7.9,5.1,8.9,1.1,17.1,1.6,21.6,3.7.5.2,1.1.4,1.8.7ZM501.1,1348.3c.7.3,1.5.6,2.3.9-.7-.3-1.6-.6-2.3-.9ZM363.4,1390.2c7.7-1.1,15.4-2.4,23.1-3.9l1.9-.4c7.7-1.5,15.5-3.2,23.2-5.1-1.3-4.2-4.2-8.1-11.5-11.3,4.3-3.9,3.1-6.9.3-9.5-7.8,1.8-15.5,3.3-23.3,4.6-.5,0-1.1.2-1.6.3-8.1,1.4-16.2,2.6-24.2,3.6,3.2,6.6,6.5,13.2,10,19.7.3.6,1.1,1.2,2.1,1.8h0ZM425.5,1353.7c-.7.2-1.5.4-2.1.6.5.3,1,.7,1.5,1,.2-.6.4-1.1.6-1.7h0ZM266.6,1396.1c4,0,19.4.1,19.4.1,7.5,0,15.1-.4,22.6-.8-12-5.3-25-9.9-33.5-17.3-6.3-5.4-7.7,0-9.2,2.6-.9,1.7-2.5,3.9-1.5,5.2,3.5,4.3,3.7,7.5,2.2,10.2h0ZM66.2,1471.9c-.9-.2-3.3-.8-6.9-1.7,1.6,3.6,7.8,18.4,9.2,25.5.2,0,.5.1.7.2,1.8-2.1,2.9-3.6,4.1-4.9,4.8,2.9,9.6,5.9,14.4,8.8,12.2,2.6,24.4,5,36.6,7.2-6.4-8.9-12.7-17.9-18.9-26.9-13.1-2.6-26.2-5.3-39.3-8.2h0ZM456.8,1722.2c-6.4,2.3-12.8,4.2-19.1,6.2,1.2.6,2.5,1.2,3.7,1.7-5.7.9-11.4,1.9-20.9,3.2-23.9,6.5-47.8,11.1-71.8,14-1,.1-2,.2-3,.4-31.4,3.7-62.8,4.6-94.3,3.3-1.5,0-3.1-.1-4.6-.2-7.5-.4-15-.8-22.5-1.4-.7,1.3-3.4,3-4.9,4.5-4.1-1.7-10.9-3.2-11.4-5.9-13.1-1.3-26.2-2.8-39.3-4.7-10.1-1.4-20.2-3.1-30.4-4.8-11.1-1.8-22-3.9-33.1-6.1-13.8-2.7-27.7-5.6-41.5-8.7-.3,0-.7-.2-1-.2,1.1,2.5,5.6,13.2,6.5,24.7,3.1.7,6.2,1.4,9.3,2.1,14.3,3.1,28.6,5.9,43.1,8.5,11.3,2.1,22.7,4,33.9,5.8,10.4,1.6,20.9,3.1,31.3,4.3,30.6,3.5,61.1,5.8,91.8,5.8s7.7-.1,11.5-.2c-2.3-5.8-4.4-11.6-5.1-17.5-.2-1.6,8.3-4.4,13.3-5.3,2.9-.5,9.7,2,9.7,3.1-.3,6.4-1.2,12.8-2.3,19.3,23.7-1,47.5-3.4,71.2-7.5,1.4-.2,2.8-.5,4.2-.7,11-2,22-4.3,33-7,1.8-.4,3.5-.9,5.2-1.4,11.2-2.9,22.5-6.1,33.7-9.9,8.8-2.9,17.8-6.1,26.8-9.8,12-4.7,24.1-10,36.2-15.9,5.6-2.7,8-9.5,5.1-15.1-2.7-5.6-9.5-8-15.1-5.3-16.4,8-33,14.9-49.5,20.9h0Z"/>
        </g>
      </g>
    </g>
  </g>
</svg>