<?xml version="1.0" encoding="utf-8"?>
<!-- Generator: Adobe Illustrator 22.1.0, SVG Export Plug-In . SVG Version: 6.00 Build 0)  -->
<svg version="1.1" id="Layer_1" xmlns="http://www.w3.org/2000/svg" xmlns:xlink="http://www.w3.org/1999/xlink" x="0px" y="0px"
	 width="230px" height="190px" viewBox="0 0 230 190" style="enable-background:new 0 0 230 190;" xml:space="preserve">
<style type="text/css">
	.st0{fill:#0A7EC2;}
	.st1{fill:#FFFFFF;}
</style>
<title>Asset 6</title>
<path class="st0" d="M12,20h206c6.6,0,12,5.4,12,12v126c0,6.6-5.4,12-12,12H12c-6.6,0-12-5.4-12-12V32C0,25.4,5.4,20,12,20z"/>
<g>
	<path class="st1" d="M0,91.1h11.1l2.5-6h5.6l2.5,6h21.7v-4.6l1.9,4.6h11.3l1.9-4.7v4.7h54v-9.9h1.1c0.7,0,1,0.1,1,1.3v8.6h27.9
		v-2.3c2.3,1.2,5.8,2.3,10.4,2.3h11.8l2.5-6h5.6l2.5,6h22.6v-5.7l3.4,5.7h18.1V53.4h-18v4.5l-2.5-4.5h-18.4v4.5l-2.3-4.5h-24.9
		c-4.2,0-7.8,0.6-10.8,2.2v-2.2h-17.2v2.2c-1.9-1.7-4.5-2.2-7.3-2.2H55.2L51,63.1l-4.3-9.7H26.9v4.5l-2.2-4.5H7.8L0,71.3V91.1z
		 M213.5,85.8h-9.2L192,65.5v20.3h-13l-2.5-6H163l-2.4,6H153c-3.2,0-7.1-0.7-9.4-3c-2.3-2.3-3.5-5.4-3.5-10.3c0-4,0.7-7.7,3.5-10.6
		c2.1-2.2,5.4-3.2,9.8-3.2h6.2v5.8h-6.1c-2.4,0-3.7,0.4-5,1.6c-1.1,1.1-1.8,3.3-1.8,6.1c0,2.9,0.6,5,1.8,6.4c1,1.1,2.8,1.4,4.5,1.4
		h2.9l9.1-21.3h9.7l10.9,25.6V58.8h9.9l11.4,18.8V58.8h6.6L213.5,85.8L213.5,85.8z M137,85.8h-6.6v-27h6.6V85.8z M126.7,66.1
		c0,4.3-2.9,6.5-4.5,7.2c1.4,0.5,2.6,1.5,3.2,2.3c0.9,1.3,1.1,2.6,1.1,4.9v5.3H120v-3.4c0-1.6,0.2-4-1-5.3c-1-1-2.4-1.2-4.7-1.2
		h-6.9v9.8h-6.5v-27h14.9c3.3,0,5.7,0.1,7.8,1.3C125.4,61.3,126.7,63,126.7,66.1z M96.2,85.8H74.6v-27h21.6v5.7H81.1v4.9h14.7V75
		H81.1v5.4h15.1V85.8z M69.8,85.8h-6.6V64.6l-9.4,21.2h-5.7l-9.4-21.2v21.2H25.5l-2.5-6H9.6l-2.5,6h-7l11.6-27h9.6l11,25.6V58.8
		h10.6l8.4,18.4L59,58.8h10.8V85.8z M174.2,74.1l-4.5-10.8l-4.4,10.8H174.2z M118.2,69.9c-0.9,0.5-1.9,0.6-3.2,0.6h-7.9v-6h8
		c1.1,0,2.3,0,3.1,0.5c0.8,0.4,1.4,1.2,1.4,2.4C119.5,68.5,119,69.4,118.2,69.9z M20.7,74.1l-4.4-10.8l-4.4,10.8H20.7z"/>
	<path class="st1" d="M125.3,114.2c0,7.5-5.6,9.1-11.3,9.1h-8v9.1H93.4l-8-8.9l-8.3,8.9H51.6v-27.1h26l7.9,8.9l8.2-8.9h20.7
		C119.5,105.3,125.3,106.7,125.3,114.2z M73.9,126.7H58v-5.4h14.2v-5.5H58v-4.9h16.2l7.1,7.9L73.9,126.7z M99.5,129.9l-9.9-11
		l9.9-10.7V129.9z M114.3,117.8H106v-6.9h8.4c2.3,0,4,0.9,4,3.3C118.4,116.6,116.8,117.8,114.3,117.8z M157.9,105.3h21.6v5.6h-15.1
		v4.9h14.8v5.5h-14.8v5.4h15.1v5.6h-21.6V105.3z M149.8,119.8c1.4,0.5,2.6,1.5,3.2,2.3c0.9,1.3,1.1,2.6,1.1,4.9v5.4h-6.5V129
		c0-1.6,0.1-4-1.1-5.3c-0.9-1-2.4-1.2-4.7-1.2h-6.9v9.9h-6.5v-27.1h14.9c3.3,0,5.7,0.1,7.8,1.3c2,1.2,3.3,2.9,3.3,6
		C154.4,116.9,151.5,119.1,149.8,119.8z M145.9,116.4c-0.9,0.5-1.9,0.6-3.2,0.6h-7.9v-6.1h8c1.2,0,2.3,0,3.1,0.5s1.3,1.3,1.3,2.4
		C147.2,115,146.7,115.9,145.9,116.4z M204.2,118.1c1.3,1.3,1.9,3,1.9,5.7c0,5.8-3.6,8.5-10.1,8.5h-12.6v-5.8H196
		c1.2,0,2.1-0.2,2.6-0.7c0.4-0.4,0.8-1,0.8-1.8s-0.3-1.4-0.8-1.8s-1.2-0.6-2.3-0.6c-6-0.2-13.6,0.2-13.6-8.4c0-3.9,2.5-8,9.2-8h13
		v5.8H193c-1.2,0-2,0.1-2.6,0.5c-0.7,0.4-1,1.1-1,2c0,1,0.6,1.7,1.4,2c0.7,0.2,1.4,0.3,2.5,0.3l3.5,0.1
		C200.3,116,202.7,116.6,204.2,118.1z M230,128.9c-1.6,2.3-4.6,3.5-8.8,3.5h-12.5v-5.8h12.4c1.2,0,2.1-0.2,2.6-0.7
		c0.4-0.4,0.8-1,0.8-1.8s-0.3-1.4-0.8-1.8s-1.2-0.6-2.3-0.6c-6.1-0.2-13.6,0.2-13.6-8.4c0-3.9,2.5-8,9.3-8H230v-5.4h-12
		c-3.6,0-6.2,0.9-8.1,2.2v-2.2h-17.7c-2.8,0-6.1,0.7-7.7,2.2v-2.2h-31.6v2.2c-2.5-1.8-6.7-2.2-8.7-2.2h-20.8v2.2
		c-2-1.9-6.4-2.2-9.1-2.2H90.9l-5.3,5.8l-5-5.8H45.7v37.8h34.2l5.5-5.9l5.2,5.9h21.1v-8.9h2.1c2.8,0,6.1-0.1,9-1.3v10.2h17.4v-9.8
		h0.8c1.1,0,1.2,0.1,1.2,1.1v8.7H195c3.3,0,6.8-0.9,8.8-2.4v2.4h16.8c3.5,0,6.9-0.5,9.5-1.7v-7.1H230L230,128.9z M230,111.1h-11.8
		c-1.2,0-2,0.1-2.6,0.5c-0.7,0.4-1,1.1-1,2c0,1,0.6,1.7,1.4,2c0.7,0.2,1.4,0.3,2.5,0.3l3.5,0.1c3.5,0.1,5.9,0.7,7.3,2.2
		c0.2,0.2,0.4,0.5,0.6,0.7L230,111.1C229.9,111.1,230,111.1,230,111.1z"/>
</g>
</svg>
