<?xml version="1.0" encoding="utf-8"?>
<!-- Generator: Adobe Illustrator 22.1.0, SVG Export Plug-In . SVG Version: 6.00 Build 0)  -->
<svg version="1.1" id="Layer_1" xmlns="http://www.w3.org/2000/svg" xmlns:xlink="http://www.w3.org/1999/xlink" x="0px" y="0px"
	 width="230px" height="190px" viewBox="0 0 230 190" style="enable-background:new 0 0 230 190;" xml:space="preserve">
<style type="text/css">
	.st0{fill:#F7F7F7;}
</style>
<title>Asset 1</title>
<g id="Layer_2_1_">
	<g id="Layer_8">
		<path class="st0" d="M12,20h206c6.6,0,12,5.4,12,12v126c0,6.6-5.4,12-12,12H12c-6.6,0-12-5.4-12-12V32C0,25.4,5.4,20,12,20z"/>
		<path id="_Compound_Path_" d="M58.6,67.9c-2.1,2.5-5.4,4.4-8.8,4.1c-0.4-3.3,1.2-6.9,3.2-9c2.2-2.6,5.3-4.2,8.7-4.5
			C61.9,61.9,60.8,65.3,58.6,67.9 M61.6,72.7c-4.8-0.3-9,2.8-11.2,2.8s-5.8-2.6-9.7-2.5c-5.1,0.1-9.7,2.9-12.1,7.4
			c-5.2,9-1.4,22.2,3.7,29.5c2.5,3.6,5.4,7.6,9.3,7.4c3.7-0.1,5.1-2.4,9.6-2.4s5.8,2.4,9.7,2.3s6.6-3.6,9-7.2c1.7-2.6,3.1-5.3,4-8.3
			c-4.7-2.1-7.8-6.8-7.8-11.9c-0.1-7.4,6.1-11,6.4-11.2C69.9,75,65.9,72.9,61.6,72.7 M89.5,62.6v54.1h8.4V98.3h11.6
			c10.6,0,18.1-7.3,18.1-17.8s-7.3-17.8-17.8-17.8L89.5,62.6z M97.9,69.7h9.7c7.3,0,11.5,3.9,11.5,10.7c0,6.8-4.2,10.8-11.5,10.8
			h-9.7V69.7z M143,117.2c5.3,0,10.2-2.7,12.4-6.9h0.2v6.5h7.8V89.8c0-7.8-6.3-12.8-15.9-12.8c-8.9,0-15.5,5.1-15.8,12.1h7.6
			c0.6-3.3,3.7-5.5,7.9-5.5c5.1,0,8,2.4,8,6.8v3L144.8,94c-9.8,0.6-15,4.6-15,11.5S135.2,117.2,143,117.2z M145.3,110.8
			c-4.5,0-7.3-2.2-7.3-5.5s2.7-5.4,8-5.7l9.3-0.6v3C155.2,107.2,150.9,110.8,145.3,110.8L145.3,110.8z M173.7,131.5
			c8.2,0,12.1-3.1,15.4-12.6l14.7-41.4h-8.6l-9.9,32h-0.2l-9.9-32h-8.8l14.2,39.4l-0.8,2.4c-1.3,4.1-3.4,5.6-7.1,5.6
			c-0.7,0-2-0.1-2.5-0.1v6.5C171.6,131.4,172.7,131.5,173.7,131.5L173.7,131.5z"/>
	</g>
</g>
</svg>
