<?xml version="1.0" encoding="utf-8"?>
<!-- Generator: Adobe Illustrator 22.1.0, SVG Export Plug-In . SVG Version: 6.00 Build 0)  -->
<svg version="1.1" id="Layer_1" xmlns="http://www.w3.org/2000/svg" xmlns:xlink="http://www.w3.org/1999/xlink" x="0px" y="0px"
	 width="230px" height="190px" viewBox="0 0 230 190" style="enable-background:new 0 0 230 190;" xml:space="preserve">
<style type="text/css">
	.st0{fill:#F2F2F2;}
	.st1{fill:#0079BE;}
	.st2{fill:#FFFFFF;}
</style>
<title>Asset 5</title>
<g id="Layer_2_1_">
	<g id="Layer_4">
		<path class="st0" d="M12,20h206c6.6,0,12,5.4,12,12v126c0,6.6-5.4,12-12,12H12c-6.6,0-12-5.4-12-12V32C0,25.4,5.4,20,12,20z"/>
		<path class="st1" d="M126.4,147.7c28.8,0.1,55.1-23.5,55.1-52.2c0-31.4-26.3-53.2-55.1-53.1h-24.8c-29.1,0-53.1,21.7-53.1,53.1
			c0,28.7,24,52.4,53.1,52.2H126.4z"/>
		<path class="st2" d="M101.8,46.7c-26.6,0-48.2,21.6-48.2,48.2c0,26.6,21.6,48.2,48.2,48.2c26.6,0,48.2-21.6,48.2-48.2
			C150,68.3,128.4,46.7,101.8,46.7C101.8,46.7,101.8,46.7,101.8,46.7z M71.2,94.9L71.2,94.9c0-12.7,7.8-24,19.6-28.5v57.1
			C79,118.9,71.2,107.6,71.2,94.9z M112.7,123.4L112.7,123.4V66.4c15.8,6,23.6,23.7,17.6,39.5C127.2,113.9,120.8,120.3,112.7,123.4z
			"/>
		<path class="st1" d="M126.4,147.7c28.8,0.1,55.1-23.5,55.1-52.2c0-31.4-26.3-53.2-55.1-53.1h-24.8c-29.1,0-53.1,21.7-53.1,53.1
			c0,28.7,24,52.4,53.1,52.2H126.4z"/>
		<path class="st2" d="M101.8,46.7c-26.6,0-48.2,21.6-48.2,48.2c0,26.6,21.6,48.2,48.2,48.2c26.6,0,48.2-21.6,48.2-48.2
			C150,68.3,128.4,46.7,101.8,46.7C101.8,46.7,101.8,46.7,101.8,46.7z M71.2,94.9L71.2,94.9c0-12.7,7.8-24,19.6-28.5v57.1
			C79,118.9,71.2,107.6,71.2,94.9z M112.7,123.4L112.7,123.4V66.4c15.8,6,23.6,23.7,17.6,39.5C127.2,113.9,120.8,120.3,112.7,123.4z
			"/>
	</g>
</g>
</svg>
