<?xml version="1.0" encoding="utf-8"?>
<!-- Generator: Adobe Illustrator 22.1.0, SVG Export Plug-In . SVG Version: 6.00 Build 0)  -->
<svg version="1.1" id="Layer_5" xmlns="http://www.w3.org/2000/svg" xmlns:xlink="http://www.w3.org/1999/xlink" x="0px" y="0px"
	 width="230px" height="190px" viewBox="0 0 230 190" style="enable-background:new 0 0 230 190;" xml:space="preserve">
<style type="text/css">
	.st0{clip-path:url(#SVGID_2_);}
	.st1{fill:#EBF1F8;}
	.st2{fill:#F27712;}
</style>
<title>Artboard 2</title>
<g>
	<g>
		<defs>
			<path id="SVGID_1_" d="M12,20h206c6.6,0,12,5.4,12,12v126c0,6.6-5.4,12-12,12H12c-6.6,0-12-5.4-12-12V32C0,25.4,5.4,20,12,20z"/>
		</defs>
		<clipPath id="SVGID_2_">
			<use xlink:href="#SVGID_1_"  style="overflow:visible;"/>
		</clipPath>
		<g class="st0">
			<path class="st1" d="M11.6,20h206c6.6,0,12,5.4,12,12v126c0,6.6-5.4,12-12,12h-206c-6.6,0-12-5.4-12-12V32
				C-0.4,25.4,4.9,20,11.6,20z"/>
			<path id="shape" class="st2" d="M69.2,175h136.6c16,0.1,29-12.7,29.1-28.7l0,0l0,0V112C183.4,141.6,127.5,162.9,69.2,175z"/>
			<path id="shape-2" d="M210.7,103h-7.3l-8.3-10.9h-0.8V103h-6V75.9h8.8c6.9,0,10.9,2.8,10.9,8c0,4.2-2.5,6.9-7,7.8L210.7,103z
				 M201.9,84.1c0-2.6-2-4-5.7-4h-1.9v8.2h1.7C199.9,88.3,201.9,86.9,201.9,84.1z M167.4,75.9h17v4.6h-11v6h10.5v4.6h-10.6v7.3h11
				v4.6h-17L167.4,75.9z M148.2,103.7l-13-27.8h6.6l8.2,18.2l8.3-18.2h6.4l-13.1,27.8H148.2z M94,103.6c-9.1,0-16.2-6.2-16.2-14.2
				c0-7.8,7.3-14.2,16.4-14.2c2.5,0,5,0.6,7.3,1.6v6.3c-2-2-4.7-3.1-7.5-3.1c-5.7,0-10,4.1-10,9.3c0,5.5,4.3,9.4,10.3,9.4
				c2.7,0,5.3-1.1,7.2-3v6.3C99.2,103.1,96.6,103.7,94,103.6z M75.9,94.7c0,5.3-4.3,8.9-10.6,8.9c-4.2,0.2-8.2-1.7-10.6-5.1l3.9-3.3
				c1.3,2.3,3.8,3.8,6.5,3.6c2.7,0,4.6-1.6,4.6-3.8c0-1.2-0.7-2.3-1.8-2.8c-1.3-0.7-2.7-1.2-4.1-1.6c-5.6-1.8-7.5-3.7-7.5-7.5
				c0-4.4,4.1-7.8,9.6-7.8c3.3,0,6.4,1,9,3.1L71.7,82c-1.2-1.4-3-2.1-4.8-2.1c-2.6,0-4.4,1.3-4.4,3c0,1.4,1.1,2.2,4.6,3.4
				C73.9,88.4,75.9,90.4,75.9,94.7L75.9,94.7z M46.5,75.9h6v27.1h-6V75.9z M27.3,103.1h-8.8V75.9h8.8c9.7,0,16.4,5.5,16.4,13.5
				c0,4.2-2.1,8.1-5.5,10.5c-3,2.1-6.3,3.1-11,3.1H27.3z M34.3,82.7c-2-1.6-4.3-2.1-8.2-2.1h-1.7v18H26c3.8,0,6.3-0.7,8.2-2.1
				c2.1-1.7,3.3-4.2,3.3-6.9C37.5,86.8,36.3,84.3,34.3,82.7L34.3,82.7z"/>
			<path id="shape-3" class="st2" d="M118.1,75.2c-7.9,0-14.2,6.4-14.2,14.2s6.4,14.2,14.2,14.2s14.2-6.4,14.2-14.2
				c0.1-7.8-6.2-14.2-14-14.2C118.3,75.2,118.2,75.2,118.1,75.2z"/>
		</g>
	</g>
</g>
</svg>
