<?xml version="1.0" encoding="utf-8"?>
<!-- Generator: Adobe Illustrator 22.1.0, SVG Export Plug-In . SVG Version: 6.00 Build 0)  -->
<svg version="1.1" id="Layer_1" xmlns="http://www.w3.org/2000/svg" xmlns:xlink="http://www.w3.org/1999/xlink" x="0px" y="0px"
	 width="230px" height="190px" viewBox="0 0 230 190" style="enable-background:new 0 0 230 190;" xml:space="preserve">
<style type="text/css">
	.st0{fill:#AFB6BC;}
	.st1{fill:#FFFFFF;}
</style>
<title>Asset 12</title>
<g id="Layer_2_1_">
	<g id="Layer_9">
		<path class="st0" d="M12,20h206c6.6,0,12,5.4,12,12v126c0,6.6-5.4,12-12,12H12c-6.6,0-12-5.4-12-12V32C0,25.4,5.4,20,12,20z"/>
		<path class="st1" d="M70.7,59.9c0.1-3.8-2.9-7-6.6-7.1c0,0,0,0,0,0H17.6c-3.8,0.1-6.8,3.3-6.6,7.1c0,0,0,0,0,0v28.5
			c-0.1,3.8,2.9,6.9,6.6,7.1c0,0,0,0,0,0H64c3.8-0.1,6.8-3.3,6.6-7.1L70.7,59.9z"/>
		<path class="st1" d="M198.5,138.1c5.5,0,8.5-2.6,8.5-8.5s-3-8.5-8.5-8.5h-25.6c-5.5,0-8.5,2.6-8.5,8.5s3,8.5,8.5,8.5H198.5z"/>
		<path class="st1" d="M147.4,138.1c5.5,0,8.5-2.6,8.5-8.5s-3-8.5-8.5-8.5h-25.6c-5.5,0-8.5,2.6-8.5,8.5s3,8.5,8.5,8.5H147.4z"/>
		<path class="st1" d="M96.2,138.1c5.5,0,8.5-2.6,8.5-8.5s-3-8.5-8.5-8.5H70.7c-5.5,0-8.5,2.6-8.5,8.5s3,8.5,8.5,8.5H96.2z"/>
		<path class="st1" d="M45.1,138.1c5.5,0,8.5-2.6,8.5-8.5s-3-8.5-8.5-8.5H19.5c-5.5,0-8.5,2.6-8.5,8.5c0,6,3,8.5,8.5,8.5H45.1z"/>
	</g>
</g>
</svg>
