<?xml version="1.0" encoding="utf-8"?>
<!-- Generator: Adobe Illustrator 22.1.0, SVG Export Plug-In . SVG Version: 6.00 Build 0)  -->
<svg version="1.1" id="Layer_1" xmlns="http://www.w3.org/2000/svg" xmlns:xlink="http://www.w3.org/1999/xlink" x="0px" y="0px"
	 width="230px" height="190px" viewBox="0 0 230 190" style="enable-background:new 0 0 230 190;" xml:space="preserve">
<style type="text/css">
	.st0{fill:#F7F7F7;}
	.st1{fill:#5F6368;}
	.st2{fill:#4285F4;}
	.st3{fill:#34A853;}
	.st4{fill:#FABB05;}
	.st5{fill:#E94235;}
	.st6{fill:none;}
</style>
<title>Asset 2</title>
<g id="Layer_2_1_">
	<g id="Layer_7">
		<path class="st0" d="M12,20h206c6.6,0,12,5.4,12,12v126c0,6.6-5.4,12-12,12H12c-6.6,0-12-5.4-12-12V32C0,25.4,5.4,20,12,20z"/>
		<g id="GPay-Light-themed-buttons">
			<g id="GPAY---SVGs">
				<g id="GPay-Brand-Mark">
					<g id="GPay">
						<g id="Pay">
							<path id="Fill-1" class="st1" d="M110.2,75.4v17.4H121c4.8,0.1,8.8-3.8,8.9-8.6c0,0,0,0,0-0.1c-0.1-4.8-4.1-8.7-8.9-8.7
								L110.2,75.4L110.2,75.4z M110.2,98.9v20.2h-6.4V69.3h17c4.1-0.1,8.1,1.5,11,4.3c5.8,5.4,6.2,14.5,0.8,20.3
								c-0.2,0.3-0.5,0.5-0.8,0.8c-2.9,2.8-6.9,4.3-11,4.2H110.2z"/>
							<path id="Fill-3" class="st1" d="M142.9,108.7c0,1.7,0.8,3.2,2.1,4.2c1.4,1.1,3.2,1.7,5,1.7c2.7,0,5.3-1.1,7.2-3
								c2-1.8,3.2-4.3,3.2-7c-2-1.6-4.8-2.4-8.4-2.4c-2.3-0.1-4.6,0.5-6.5,1.8C143.9,105,142.9,106.8,142.9,108.7 M151.2,83.9
								c4.7,0,8.5,1.3,11.2,3.8s4.1,6,4.1,10.4v21h-6.1v-4.7h-0.3c-2.2,3.7-6.3,5.9-10.6,5.8c-3.5,0.1-6.8-1.1-9.4-3.3
								c-2.5-2.1-3.9-5.1-3.8-8.3c-0.1-3.3,1.4-6.4,4-8.4C143,98,146.6,97,151,97c3.3-0.1,6.5,0.6,9.4,2.1v-1.5c0-2.2-1-4.3-2.6-5.7
								c-1.7-1.5-3.9-2.4-6.2-2.3c-3.4-0.1-6.6,1.6-8.5,4.5l-5.6-3.6C140.5,86.1,145.1,83.9,151.2,83.9"/>
							<g id="Group-7">
								<polygon id="Fill-5" class="st1" points="201.8,85 180.4,134.2 173.7,134.2 181.7,117 167.6,85 174.6,85 184.8,109.5 
									184.9,109.5 194.8,85 								"/>
							</g>
						</g>
						<g id="G">
							<path id="Fill-8" class="st2" d="M84.3,94.6c0-1.9-0.2-3.9-0.5-5.8H56.8v11h15.5c-0.6,3.6-2.7,6.7-5.7,8.7v7.2h9.2
								C81.2,110.6,84.3,103.3,84.3,94.6"/>
							<path id="Fill-10" class="st3" d="M56.8,122.6c7.7,0,14.3-2.5,19-6.9l-9.2-7.2c-8.1,5.2-18.9,2.8-24-5.3
								c-0.8-1.2-1.4-2.5-1.8-3.8h-9.5v7.4C36,116.5,46,122.6,56.8,122.6"/>
							<path id="Fill-12" class="st4" d="M40.7,99.4c-1.2-3.6-1.2-7.4,0-11v-7.3h-9.5c-4.1,8.1-4.1,17.6,0,25.7L40.7,99.4z"/>
							<path id="Fill-14" class="st5" d="M56.8,76.6c4.1-0.1,8,1.5,11,4.3l0,0l8.2-8.2c-5.2-4.9-12.1-7.5-19.2-7.5
								C46,65.3,36,71.4,31.2,81.1l9.5,7.4C43,81.5,49.5,76.7,56.8,76.6"/>
						</g>
					</g>
					<polygon id="Shape" class="st6" points="27,64.2 203,64.2 203,140.9 27,140.9 					"/>
				</g>
			</g>
		</g>
	</g>
</g>
</svg>
