<?xml version="1.0" encoding="utf-8"?>
<!-- Generator: Adobe Illustrator 22.1.0, SVG Export Plug-In . SVG Version: 6.00 Build 0)  -->
<svg version="1.1" id="Layer_1" xmlns="http://www.w3.org/2000/svg" xmlns:xlink="http://www.w3.org/1999/xlink" x="0px" y="0px"
	 width="230px" height="190px" viewBox="0 0 230 190" style="enable-background:new 0 0 230 190;" xml:space="preserve">
<style type="text/css">
	.st0{fill:#F2F2F2;}
	.st1{fill:#FFFFFF;}
	.st2{fill:url(#path6338_1_);}
	.st3{fill:url(#path6349_1_);}
	.st4{fill:url(#path6360_1_);}
	.st5{fill:url(#path6371_1_);}
	.st6{fill:url(#path6384_1_);}
</style>
<title>Asset 3</title>
<g id="Layer_2_1_">
	<g id="Layer_6">
		<path class="st0" d="M12,20h206c6.6,0,12,5.4,12,12v126c0,6.6-5.4,12-12,12H12c-6.6,0-12-5.4-12-12V32C0,25.4,5.4,20,12,20z"/>
		<g id="g6321">
			<g id="g6323">
				<path id="path6325" class="st1" d="M189.2,129.3c0,12.7-10.3,23-23,23h-125v-91c0-12.7,10.3-23,23-23h125V129.3z"/>
				<g id="g6327">
					
						<linearGradient id="path6338_1_" gradientUnits="userSpaceOnUse" x1="-513.3593" y1="-251.4888" x2="-493.5192" y2="-251.4888" gradientTransform="matrix(2.05 0 0 -2.05 1192.9099 -413.96)">
						<stop  offset="0" style="stop-color:#007940"/>
						<stop  offset="0.23" style="stop-color:#00873F"/>
						<stop  offset="0.74" style="stop-color:#40A737"/>
						<stop  offset="1" style="stop-color:#5CB531"/>
					</linearGradient>
					<path id="path6338" class="st2" d="M148.5,105.9h9.5c0.3,0,0.9-0.1,1.2-0.1c2-0.4,3.4-2.2,3.3-4.2c0-2-1.4-3.8-3.3-4.3
						c-0.4-0.1-0.8-0.1-1.2-0.1h-9.5L148.5,105.9L148.5,105.9z"/>
					
						<linearGradient id="path6349_1_" gradientUnits="userSpaceOnUse" x1="-513.3593" y1="-248.4463" x2="-493.5544" y2="-248.4463" gradientTransform="matrix(2.05 0 0 -2.05 1192.9099 -413.96)">
						<stop  offset="0" style="stop-color:#007940"/>
						<stop  offset="0.23" style="stop-color:#00873F"/>
						<stop  offset="0.74" style="stop-color:#40A737"/>
						<stop  offset="1" style="stop-color:#5CB531"/>
					</linearGradient>
					<path id="path6349" class="st3" d="M157,46c-9.1,0-16.4,7.4-16.5,16.5v17.1h23.2c0.5,0,1.1,0,1.6,0.1c5.2,0.3,9.1,3,9.1,7.7
						c0,3.7-2.6,6.9-7.5,7.5V95c5.3,0.4,9.4,3.3,9.4,8c0,5-4.5,8.2-10.5,8.2h-25.6v33.5h24.1c9.1,0,16.5-7.4,16.4-16.5c0,0,0,0,0,0
						V46H157z"/>
					
						<linearGradient id="path6360_1_" gradientUnits="userSpaceOnUse" x1="-513.3593" y1="-245.06" x2="-493.5192" y2="-245.06" gradientTransform="matrix(2.05 0 0 -2.05 1192.9099 -413.96)">
						<stop  offset="0" style="stop-color:#007940"/>
						<stop  offset="0.23" style="stop-color:#00873F"/>
						<stop  offset="0.74" style="stop-color:#40A737"/>
						<stop  offset="1" style="stop-color:#5CB531"/>
					</linearGradient>
					<path id="path6360" class="st4" d="M161.4,88.4c0-2-1.4-3.7-3.4-3.9c-0.2,0-0.6-0.1-0.9-0.1h-8.6v8h8.6c0.3,0,0.6,0,0.9-0.1
						C160,92.1,161.4,90.4,161.4,88.4z"/>
				</g>
				
					<linearGradient id="path6371_1_" gradientUnits="userSpaceOnUse" x1="-557.7692" y1="-248.4122" x2="-537.6292" y2="-248.4122" gradientTransform="matrix(2.05 0 0 -2.05 1192.9099 -413.96)">
					<stop  offset="0" style="stop-color:#1F286F"/>
					<stop  offset="0.48" style="stop-color:#004E94"/>
					<stop  offset="0.83" style="stop-color:#0066B1"/>
					<stop  offset="1" style="stop-color:#006FBC"/>
				</linearGradient>
				<path id="path6371" class="st5" d="M66,46c-9.1,0-16.5,7.3-16.5,16.4l0,0V103c4.4,2.3,9.2,3.6,14.2,3.7c5.7,0,8.8-3.4,8.8-8.1
					V79.4h14.1v19.1c0,7.4-4.6,13.5-20.3,13.5c-5.7,0-11.4-0.7-16.9-2.1v34.7h24.2c9.1,0,16.4-7.4,16.4-16.5V46H66z"/>
				
					<linearGradient id="path6384_1_" gradientUnits="userSpaceOnUse" x1="-535.6693" y1="-248.4561" x2="-516.0992" y2="-248.4561" gradientTransform="matrix(2.05 0 0 -2.05 1192.9099 -413.96)">
					<stop  offset="0" style="stop-color:#6C2C2F"/>
					<stop  offset="0.17" style="stop-color:#882730"/>
					<stop  offset="0.57" style="stop-color:#BE1833"/>
					<stop  offset="0.86" style="stop-color:#DC0436"/>
					<stop  offset="1" style="stop-color:#E60039"/>
				</linearGradient>
				<path id="path6384" class="st6" d="M111.4,46C102.4,46,95,53.3,95,62.4V84c4.2-3.5,11.4-5.8,23.1-5.2c4.4,0.3,8.7,1,12.9,2v7
					c-3.9-2.1-8.1-3.3-12.5-3.6c-8.9-0.6-14.2,3.7-14.2,11.3s5.3,12,14.2,11.3c4.4-0.4,8.6-1.7,12.5-3.8v7c-4.2,1.1-8.6,1.7-12.9,2
					c-11.7,0.5-18.9-1.7-23.1-5.2v38h24.2c9.1,0,16.5-7.4,16.5-16.5v0V46H111.4z"/>
			</g>
		</g>
	</g>
</g>
</svg>
