<?xml version="1.0" encoding="utf-8"?>
<!-- Generator: Adobe Illustrator 22.1.0, SVG Export Plug-In . SVG Version: 6.00 Build 0)  -->
<svg version="1.1" id="Layer_1" xmlns="http://www.w3.org/2000/svg" xmlns:xlink="http://www.w3.org/1999/xlink" x="0px" y="0px"
	 width="230px" height="190px" viewBox="0 0 230 190" style="enable-background:new 0 0 230 190;" xml:space="preserve">
<style type="text/css">
	.st0{fill:#161616;}
	.st1{fill:#F79410;}
	.st2{fill:#FF5F00;}
	.st3{fill:#EB001B;}
	.st4{fill:#F79E1B;}
</style>
<title>Asset 7</title>
<path class="st0" d="M12,20h206c6.6,0,12,5.4,12,12v126c0,6.6-5.4,12-12,12H12c-6.6,0-12-5.4-12-12V32C0,25.4,5.4,20,12,20z"/>
<path class="st1" d="M191.9,124.6v-1.9h-0.5l-0.6,1.3l-0.6-1.3h-0.5v1.9h0.4v-1.4l0.5,1.2h0.4l0.5-1.2v1.4H191.9z M188.8,124.6V123
	h0.6v-0.3h-1.6v0.3h0.6v1.6H188.8z"/>
<path class="st2" d="M136.4,132.7H94.1v-76h42.3V132.7z"/>
<path class="st3" d="M96.8,94.7c0-14.8,6.8-28.8,18.4-38c-21-16.5-51.4-12.8-67.9,8.1s-12.8,51.4,8.1,67.9
	c17.5,13.8,42.2,13.8,59.7,0C103.6,123.5,96.8,109.5,96.8,94.7"/>
<path class="st4" d="M193.4,94.7c0,26.7-21.6,48.3-48.3,48.3c-10.8,0-21.3-3.6-29.9-10.3c21-16.5,24.6-46.9,8.1-67.9
	c-2.4-3-5.1-5.8-8.1-8.1c21-16.5,51.4-12.8,67.9,8.1C189.8,73.3,193.4,83.8,193.4,94.7"/>
</svg>
