<?xml version="1.0" encoding="utf-8"?>
<!-- Generator: Adobe Illustrator 23.0.2, SVG Export Plug-In . SVG Version: 6.00 Build 0)  -->
<svg version="1.1" id="Layer_1" xmlns="http://www.w3.org/2000/svg" xmlns:xlink="http://www.w3.org/1999/xlink" x="0px" y="0px"
	 viewBox="0 0 230 190" style="enable-background:new 0 0 230 190;" xml:space="preserve">
<style type="text/css">
	.st0{fill:#E21836;}
	.st1{fill:#00447C;}
	.st2{fill:#007B84;}
	.st3{fill:#FEFEFE;}
</style>
<title>Asset 7</title>
<g>
	<path class="st0" d="M45,23.1h57.4c8,0,13,6.5,11.1,14.6L86.9,152.4c-1.9,8-9.9,14.5-17.9,14.5H11.5c-8,0-13-6.5-11.1-14.5
		L27.1,37.6C29,29.6,37,23.1,45,23.1"/>
	<path class="st1" d="M97.7,23.1h66c8,0,4.4,6.5,2.5,14.6l-26.7,114.7c-1.9,8-1.3,14.5-9.3,14.5h-66c-8,0-13-6.5-11.1-14.5
		L79.8,37.6C81.7,29.6,89.7,23.1,97.7,23.1"/>
	<path class="st2" d="M161.1,23.1h57.4c8,0,13,6.5,11.1,14.6l-26.7,114.7c-1.9,8-9.9,14.5-17.9,14.5h-57.4c-8,0-13-6.5-11.1-14.5
		l26.7-114.7C145,29.6,153,23.1,161.1,23.1"/>
	<path class="st3" d="M60,59.8c-5.9,0.1-7.6,0-8.2-0.1c-0.2,1-4.2,19.4-4.2,19.4c-0.9,3.7-1.5,6.4-3.6,8.1c-1.2,1-2.6,1.5-4.2,1.5
		c-2.6,0-4.1-1.3-4.4-3.8l0-0.8c0,0,0.8-5,0.8-5c0,0,4.2-16.7,4.9-19c0-0.1,0.1-0.2,0.1-0.3c-8.1,0.1-9.6,0-9.7-0.1
		c-0.1,0.2-0.3,1.2-0.3,1.2l-4.3,18.9l-0.4,1.6l-0.7,5.2c0,1.6,0.3,2.8,0.9,3.9c1.9,3.4,7.5,3.9,10.6,3.9c4,0,7.8-0.9,10.4-2.4
		c4.4-2.6,5.6-6.7,6.7-10.4l0.5-1.9c0,0,4.3-17.4,5-19.7C60,60,60,59.9,60,59.8z M74.7,73.9c-1,0-2.9,0.3-4.6,1.1
		c-0.6,0.3-1.2,0.7-1.8,1l0.6-2l-0.3-0.3c-3.6,0.7-4.4,0.8-7.8,1.3l-0.3,0.2c-0.4,3.2-0.7,5.6-2.2,11.9c-0.5,2.3-1.1,4.7-1.7,7
		l0.2,0.3c3.4-0.2,4.5-0.2,7.4-0.1l0.2-0.3c0.4-1.9,0.4-2.4,1.3-6.3c0.4-1.9,1.2-5.9,1.6-7.4c0.7-0.3,1.5-0.7,2.2-0.7
		c1.7,0,1.5,1.5,1.4,2c-0.1,1-0.7,4.1-1.3,6.9l-0.4,1.8c-0.3,1.3-0.6,2.6-0.9,3.9l0.1,0.3c3.4-0.2,4.4-0.2,7.3-0.1L76,94
		c0.5-3,0.7-3.8,1.6-8.2l0.5-2c0.9-4,1.4-6,0.7-7.6C78,74.3,76.3,73.9,74.7,73.9z M91.1,78c-1.8,0.3-2.9,0.6-4.1,0.7
		c-1.1,0.2-2.2,0.3-4,0.6l-0.1,0.1l-0.1,0.1c-0.2,1.3-0.3,2.4-0.5,3.7c-0.2,1.4-0.5,2.9-1,5.1c-0.4,1.7-0.6,2.3-0.8,2.9
		c-0.2,0.6-0.5,1.2-0.9,2.8l0.1,0.2l0.1,0.1c1.6-0.1,2.7-0.1,3.8-0.1c1.1,0,2.2,0,4,0l0.2-0.1l0.2-0.1c0.3-1.5,0.3-1.9,0.4-2.6
		c0.2-0.8,0.4-1.9,1.1-4.8c0.3-1.4,0.6-2.7,1-4.1c0.3-1.4,0.7-2.8,1-4.1l0-0.2L91.1,78z M91.1,72.4c-1.6-1-4.5-0.7-6.4,0.7
		c-1.9,1.3-2.1,3.1-0.5,4.1c1.6,0.9,4.5,0.7,6.4-0.7C92.5,75.2,92.7,73.4,91.1,72.4z M100.9,94.7c3.3,0,6.7-0.9,9.2-3.6
		c2-2.2,2.9-5.4,3.2-6.8c1-4.4,0.2-6.5-0.8-7.8c-1.5-1.9-4.2-2.5-6.9-2.5c-1.7,0-5.6,0.2-8.7,3c-2.2,2-3.2,4.8-3.9,7.5
		c-0.6,2.7-1.3,7.6,3.2,9.4C97.7,94.5,99.7,94.7,100.9,94.7z M100.7,84.7c0.8-3.4,1.7-6.2,3.9-6.2c1.8,0,1.9,2.1,1.1,5.5
		c-0.1,0.7-0.8,3.5-1.7,4.7c-0.6,0.9-1.4,1.4-2.2,1.4c-0.2,0-1.7,0-1.7-2.1C100.2,86.9,100.4,85.9,100.7,84.7z M121.6,94.3l0.3-0.3
		c0.4-1.9,0.4-2.4,1.2-6.3c0.4-1.9,1.2-5.9,1.6-7.4c0.7-0.3,1.5-0.7,2.2-0.7c1.7,0,1.5,1.5,1.4,2c-0.1,1-0.7,4.1-1.3,6.9l-0.4,1.8
		c-0.3,1.3-0.6,2.6-0.9,3.9l0.1,0.3c3.4-0.2,4.4-0.2,7.3-0.1l0.3-0.3c0.5-3,0.6-3.8,1.6-8.2l0.5-2c0.9-4,1.4-6,0.7-7.6
		c-0.7-1.8-2.5-2.3-4.1-2.3c-1,0-2.9,0.3-4.6,1.1c-0.6,0.3-1.2,0.7-1.8,1l0.5-2l-0.3-0.3c-3.6,0.7-4.4,0.8-7.8,1.3l-0.3,0.2
		c-0.4,3.2-0.7,5.6-2.2,11.9c-0.5,2.3-1.1,4.7-1.7,7l0.2,0.3C117.6,94.2,118.6,94.2,121.6,94.3z M146.4,94.4c0.2-1,1.5-7.2,1.5-7.2
		c0,0,1.1-4.5,1.1-4.7c0,0,0.3-0.5,0.7-0.7h0.5c4.7,0,10,0,14.2-3.1c2.8-2.1,4.8-5.2,5.6-9c0.2-0.9,0.4-2,0.4-3.1
		c0-1.4-0.3-2.9-1.1-4c-2.1-3-6.3-3-11.2-3c0,0-2.4,0-2.4,0c-6.2,0.1-8.7,0.1-9.8-0.1c-0.1,0.5-0.3,1.3-0.3,1.3s-2.2,10.4-2.2,10.4
		c0,0-5.4,22-5.6,23.1C143.2,94.3,145.5,94.3,146.4,94.4z M150.6,76c0,0,2.4-10.3,2.4-10.3l0.1-0.5l0-0.4l1,0.1c0,0,4.9,0.4,5,0.4
		c1.9,0.7,2.7,2.7,2.2,5.2c-0.5,2.3-2,4.2-3.9,5.2c-1.6,0.8-3.5,0.9-5.5,0.9h-1.3L150.6,76z M165.4,84.9c-0.6,2.7-1.4,7.6,3.1,9.3
		c1.4,0.6,2.7,0.8,4,0.7c1.4-0.1,2.6-0.8,3.8-1.8c-0.1,0.4-0.2,0.8-0.3,1.2l0.2,0.3c3.2-0.1,4.2-0.1,7.7-0.1l0.3-0.2
		c0.5-3,1-5.9,2.3-11.6c0.6-2.7,1.3-5.5,2-8.2l-0.1-0.3c-3.6,0.7-4.6,0.8-8,1.3l-0.3,0.2c0,0.3-0.1,0.5-0.1,0.8
		c-0.5-0.9-1.3-1.6-2.5-2.1c-1.5-0.6-5.2,0.2-8.3,3C167,79.5,166,82.2,165.4,84.9z M172.9,85.1c0.8-3.3,1.7-6.1,4-6.1
		c1.5,0,2.2,1.3,2.1,3.6c-0.1,0.6-0.3,1.2-0.4,1.8c-0.2,1-0.5,2-0.7,2.9c-0.2,0.7-0.5,1.3-0.8,1.7c-0.6,0.8-2,1.4-2.8,1.4
		c-0.2,0-1.6,0-1.7-2.1C172.5,87.3,172.7,86.2,172.9,85.1z M212.4,74.2l-0.3-0.3c-3.6,0.7-4.2,0.8-7.5,1.3l-0.2,0.2c0,0,0,0.1,0,0.2
		l0-0.1c-2.4,5.6-2.4,4.4-4.4,8.8c0-0.2,0-0.3,0-0.5l-0.5-9.6l-0.3-0.3c-3.7,0.7-3.8,0.8-7.3,1.3l-0.3,0.2c0,0.1,0,0.2-0.1,0.4l0,0
		c0.4,2.2,0.3,1.7,0.8,5.2c0.2,1.7,0.5,3.4,0.7,5.1c0.3,2.8,0.5,4.2,0.9,8.5c-2.3,3.8-2.9,5.3-5.1,8.7l0,0l-1.6,2.5
		c-0.2,0.3-0.3,0.4-0.6,0.5c-0.3,0.1-0.6,0.1-1,0.1h-0.9l-1.3,4.3l4.5,0.1c2.6,0,4.3-1.2,5.1-2.9l2.8-4.8h0l0.3-0.3
		C198.1,98.8,212.4,74.2,212.4,74.2z M165.4,130.9h-1.9l7-23.2h2.3l0.7-2.4l0.1,2.7c-0.1,1.6,1.2,3.1,4.6,2.9h3.9l1.3-4.5H182
		c-0.8,0-1.2-0.2-1.2-0.7l-0.1-2.7h-7.3v0c-2.3,0-9.4,0.2-10.8,0.6c-1.7,0.4-3.5,1.7-3.5,1.7l0.7-2.4h-6.8l-1.4,4.7l-7.1,23.5h-1.4
		l-1.4,4.4h13.5l-0.5,1.5h6.7l0.4-1.5h1.9L165.4,130.9z M159.8,112.5c-1.1,0.3-3.1,1.2-3.1,1.2l1.8-5.9h5.4l-1.3,4.3
		C162.6,112.1,160.9,112.2,159.8,112.5z M159.9,120.9c0,0-1.7,0.2-2.8,0.5c-1.1,0.3-3.2,1.4-3.2,1.4l1.9-6.2h5.4L159.9,120.9z
		 M156.9,131h-5.4l1.6-5.2h5.4L156.9,131z M169.9,116.6h7.8l-1.1,3.6h-7.9l-1.2,4h6.9l-5.2,7.4c-0.4,0.5-0.7,0.7-1.1,0.9
		c-0.4,0.2-0.8,0.4-1.4,0.4h-1.9l-1.3,4.3h5c2.6,0,4.1-1.2,5.3-2.7l3.6-4.9l0.8,5c0.2,0.9,0.8,1.5,1.3,1.7c0.5,0.3,1,0.7,1.8,0.7
		c0.8,0,1.4,0.1,1.7,0.1h2.5l1.5-4.9h-1c-0.6,0-1.5-0.1-1.7-0.3c-0.2-0.2-0.2-0.5-0.3-1l-0.8-5H180l1.4-1.7h7.9l1.2-4h-7.3l1.1-3.6
		h7.3l1.4-4.5h-21.7L169.9,116.6z M104.1,132l1.8-6.1h7.5l1.4-4.5h-7.5l1.1-3.7h7.3l1.4-4.4H98.7l-1.3,4.4h4.2l-1.1,3.7h-4.2
		l-1.4,4.6h4.2l-2.4,8c-0.3,1.1,0.2,1.5,0.5,2c0.3,0.5,0.6,0.8,1.3,1c0.7,0.2,1.2,0.3,1.9,0.3h8.4l1.5-5l-3.7,0.5
		C105.8,132.8,103.8,132.7,104.1,132z M104.9,103l-1.9,3.4c-0.4,0.7-0.8,1.2-1.1,1.4c-0.3,0.2-0.9,0.3-1.7,0.3h-1l-1.3,4.4h3.3
		c1.6,0,2.8-0.6,3.4-0.9c0.6-0.3,0.8-0.1,1.3-0.6l1.1-1h10.3l1.4-4.6h-7.5l1.3-2.5H104.9z M120.1,132.1c-0.2-0.3,0-0.7,0.2-1.6
		l2.8-9.3h10c1.5,0,2.5,0,3.2-0.1c0.7-0.1,1.5-0.3,2.4-0.8c0.9-0.5,1.4-1,1.7-1.6c0.4-0.6,1.1-1.9,1.7-3.9l3.5-11.7l-10.4,0.1
		c0,0-3.2,0.5-4.6,1c-1.4,0.6-3.4,2.2-3.4,2.2l0.9-3.2h-6.4l-9,29.7c-0.3,1.2-0.5,2-0.6,2.5c0,0.5,0.7,1.1,1.1,1.5
		c0.5,0.4,1.3,0.3,2.1,0.4c0.8,0.1,1.9,0.1,3.5,0.1h4.9l1.5-5.1l-4.4,0.4C120.5,132.6,120.2,132.3,120.1,132.1z M124.9,114.9h10.5
		l-0.7,2.1c-0.1,0-0.3-0.1-1.4,0h-9.1L124.9,114.9z M127,107.9h10.6l-0.8,2.5c0,0-5,0-5.8,0.1c-3.5,0.6-5.6,2.5-5.6,2.5L127,107.9z
		 M134.9,124c-0.1,0.3-0.2,0.5-0.4,0.6c-0.2,0.1-0.6,0.2-1.1,0.2H132l0.1-2.5h-6.2l-0.3,12.4c0,0.9,0.1,1.4,0.7,1.8
		c0.7,0.5,2.7,0.6,5.4,0.6h3.9l1.4-4.7l-3.4,0.2l-1.1,0.1c-0.2-0.1-0.3-0.1-0.5-0.3c-0.1-0.1-0.4-0.1-0.3-1l0-3.2l3.6-0.1
		c1.9,0,2.7-0.6,3.4-1.2c0.7-0.6,0.9-1.2,1.1-2.1l0.6-2.8h-4.9L134.9,124z"/>
</g>
</svg>
