<?xml version="1.0" encoding="utf-8"?>
<!-- Generator: Adobe Illustrator 22.1.0, SVG Export Plug-In . SVG Version: 6.00 Build 0)  -->
<svg version="1.1" id="Layer_1" xmlns="http://www.w3.org/2000/svg" xmlns:xlink="http://www.w3.org/1999/xlink" x="0px" y="0px"
	 width="230px" height="190px" viewBox="0 0 230 190" style="enable-background:new 0 0 230 190;" xml:space="preserve">
<style type="text/css">
	.st0{clip-path:url(#SVGID_2_);}
	.st1{fill:#FFFFFF;}
	.st2{fill:#F7B600;}
	.st3{fill:#1A1F71;}
</style>
<title>Artboard 1</title>
<g>
	<g>
		<defs>
			<path id="SVGID_1_" d="M12,20h206c6.6,0,12,5.4,12,12v126c0,6.6-5.4,12-12,12H12c-6.6,0-12-5.4-12-12V32C0,25.4,5.4,20,12,20z"/>
		</defs>
		<clipPath id="SVGID_2_">
			<use xlink:href="#SVGID_1_"  style="overflow:visible;"/>
		</clipPath>
		<g class="st0">
			<path id="path4147" class="st1" d="M250.8,182H-20V10h270.8L250.8,182L250.8,182z"/>
			<path id="path4149" class="st2" d="M-15.5,144h261.7v51.5H-15.5V144z"/>
			<path id="path4151" class="st3" d="M-15.5,48h261.7V-1.5H-15.5V48z"/>
			<g id="g4155">
				<g id="g4161">
					<path id="path4163" class="st3" d="M108.8,68.5l-12.4,57.9h-15l12.4-57.9C93.8,68.5,108.8,68.5,108.8,68.5z M171.8,105.9
						l7.9-21.7l4.5,21.7H171.8z M188.5,126.4h13.9l-12.1-57.9h-12.8c-2.8,0-5.3,1.7-6.4,4.2l-22.5,53.7h15.7l3.1-8.7h19.2
						L188.5,126.4z M149.4,107.5c0.1-15.3-21.1-16.1-21-23c0.1-2.1,2-4.3,6.4-4.8c5.1-0.5,10.2,0.4,14.8,2.6l2.6-12.3
						c-4.5-1.7-9.2-2.6-14-2.6c-14.8,0-25.2,7.9-25.3,19.1c-0.1,8.3,7.4,13,13.1,15.8c5.8,2.8,7.8,4.7,7.8,7.2c0,3.9-4.7,5.6-9,5.7
						c-5.4,0.1-10.7-1.1-15.4-3.7l-2.7,12.7c3.5,1.6,10,3,16.7,3.1C139.1,127.3,149.3,119.5,149.4,107.5 M87.4,68.5l-24.3,57.9H47.3
						l-12-46.2c-0.7-2.8-1.3-3.9-3.5-5.1c-3.6-2-9.5-3.8-14.8-4.9l0.4-1.7h25.5c3.4,0,6.4,2.5,6.9,5.9l6.3,33.5l15.6-39.4L87.4,68.5
						z"/>
				</g>
			</g>
		</g>
	</g>
</g>
</svg>
